<svg xmlns="http://www.w3.org/2000/svg" height="512pt" version="1.1" viewBox="-38 0 512 512.00009" width="512pt">
<g id="surface1">
<path d="M 126.039062 376.070312 C 126.898438 376.699219 127.945312 377.046875 128.980469 377.046875 C 129.21875 377.046875 129.453125 377.027344 129.644531 376.996094 C 131.511719 376.71875 132.96875 375.460938 134.144531 374.441406 L 146.027344 364.101562 L 143.757812 361.828125 C 143.195312 361.269531 142.695312 360.703125 142.300781 360.253906 L 142.175781 360.109375 C 142.011719 359.921875 141.828125 359.714844 141.632812 359.484375 L 139.722656 357.203125 L 127.886719 366.96875 C 126.6875 367.945312 123.890625 370.234375 124.277344 373.160156 C 124.40625 374.257812 125.011719 375.269531 126.039062 376.070312 Z M 126.039062 376.070312 " style=" stroke:none;fill-rule:nonzero;fill:rgb(35.686275%,36.470588%,42.745098%);fill-opacity:1;" />
<path d="M 385.878906 111.765625 C 390.90625 107.980469 396.609375 103.691406 403.238281 101.277344 L 404.984375 100.644531 L 406.714844 85.34375 C 407.011719 82.695312 407.503906 79.71875 407.984375 76.839844 C 410.355469 62.535156 413.304688 44.734375 399.5625 37.226562 C 392.8125 33.539062 384.773438 33.054688 376.941406 32.582031 L 376.027344 32.535156 C 375.363281 32.492188 374.859375 32.480469 374.402344 32.480469 L 371.535156 32.480469 L 371.40625 35.34375 C 371.234375 39.132812 370.839844 42.816406 370.464844 46.378906 L 370.441406 46.59375 C 370.117188 49.628906 369.8125 52.5 369.667969 55.105469 L 365.710938 127.148438 L 370.890625 123.167969 C 376.3125 119.003906 381.214844 115.277344 385.878906 111.765625 Z M 385.878906 111.765625 " style=" stroke:none;fill-rule:nonzero;fill:rgb(84.705882%,87.058824%,92.54902%);fill-opacity:1;" />
<path d="M 318.554688 507.390625 C 321.558594 507.640625 325.507812 507.929688 329.386719 507.929688 C 336.679688 507.929688 347.175781 507.089844 354.128906 499.835938 C 360.214844 493.480469 361.671875 484.476562 362.835938 474.21875 L 395.75 182.527344 L 389.824219 188.019531 C 382.011719 195.261719 373.449219 202.457031 365.355469 209.207031 L 361 212.832031 L 348.199219 445.871094 C 347.75 453.96875 347.140625 465.058594 340.734375 472.570312 C 333.179688 481.410156 320.875 482.601562 309.835938 482.601562 C 308.25 482.601562 306.609375 482.574219 304.8125 482.523438 L 55.878906 475.972656 C 53.082031 475.902344 48.886719 475.765625 44.71875 475.328125 L 43.039062 480.980469 C 50.71875 484.90625 60.636719 485.734375 69.382812 486.460938 Z M 318.554688 507.390625 " style=" stroke:none;fill-rule:nonzero;fill:rgb(84.705882%,87.058824%,92.54902%);fill-opacity:1;" />
<path d="M 425.179688 104.648438 C 422.015625 101.972656 417.78125 100.558594 412.933594 100.558594 C 410.304688 100.558594 407.578125 100.976562 405.035156 101.769531 C 397.992188 103.980469 391.894531 108.570312 386.519531 112.625 C 366.59375 127.625 346.675781 143.253906 327.324219 159.078125 C 317.320312 167.261719 307.125 175.792969 296.164062 185.160156 L 292.589844 188.214844 L 296.867188 190.167969 C 313.578125 197.8125 326.363281 213.597656 330.234375 231.367188 L 331.285156 236.203125 L 364.664062 208.386719 C 376.292969 198.691406 386.695312 189.894531 396.210938 180.394531 C 410.878906 165.777344 420.722656 152.214844 427.183594 137.710938 C 432.085938 126.695312 434.132812 112.230469 425.179688 104.648438 Z M 406.429688 135.820312 C 399.601562 142.46875 391.9375 148.636719 384.519531 154.605469 C 381.101562 157.359375 377.230469 160.480469 373.570312 163.566406 L 340.554688 191.386719 C 338.289062 193.296875 335.722656 195.457031 332.742188 196.171875 C 332.191406 196.300781 331.597656 196.367188 331.023438 196.367188 C 329.015625 196.367188 326.535156 195.585938 325.585938 193.386719 C 324.910156 191.828125 325.210938 189.71875 326.367188 187.886719 C 327.5 186.101562 329.214844 184.699219 330.871094 183.34375 L 368.984375 152.21875 C 371.730469 149.96875 374.539062 147.539062 377.410156 145.042969 C 384.316406 139.042969 391.460938 132.835938 399.261719 128.3125 L 399.574219 128.128906 C 401.453125 127.03125 404.597656 125.195312 407.082031 125.195312 C 407.746094 125.195312 408.292969 125.332031 408.757812 125.613281 C 409.6875 126.179688 410.195312 126.945312 410.3125 127.945312 C 410.601562 130.507812 408.21875 134.089844 406.429688 135.820312 Z M 406.429688 135.820312 " style=" stroke:none;fill-rule:nonzero;fill:rgb(15.686275%,56.078431%,78.823529%);fill-opacity:1;" />
<path d="M 238.417969 239.585938 L 236.472656 238.390625 L 234.804688 239.941406 C 233.605469 241.054688 232.414062 242.164062 231.226562 243.277344 L 229.351562 245.03125 L 229.28125 245 L 227.792969 246.488281 L 227.734375 246.539062 L 225.816406 248.355469 C 224.53125 249.570312 223.25 250.785156 221.972656 252 L 220.011719 253.863281 L 219.433594 254.417969 L 218.527344 255.28125 L 218.53125 255.28125 L 211.136719 262.371094 L 211.148438 262.378906 L 211.101562 262.421875 C 210.019531 263.464844 208.941406 264.511719 207.863281 265.558594 L 203.605469 269.6875 L 203.226562 270.046875 C 201.898438 271.308594 200.320312 272.664062 198.648438 274.097656 L 197.375 275.195312 C 196.808594 275.683594 196.234375 276.179688 195.65625 276.683594 L 194.734375 277.488281 L 194.703125 277.449219 L 193.804688 278.304688 L 192.007812 279.878906 L 192.113281 279.921875 C 190.800781 281.183594 189.691406 282.328125 188.75 283.402344 L 186.351562 286.136719 L 189.488281 287.972656 C 203.296875 296.054688 214.949219 308.34375 222.296875 322.570312 L 224.15625 326.167969 L 227.058594 323.339844 C 228.085938 322.335938 229.289062 321.183594 230.402344 320.25 L 232.347656 318.628906 L 232.351562 318.636719 L 239.003906 313.078125 L 239.007812 313.082031 L 249.992188 303.933594 L 249.988281 303.933594 L 259.234375 296.234375 L 260.757812 294.964844 L 260.777344 294.945312 L 265.996094 290.59375 L 265.996094 290.597656 L 273.378906 284.445312 L 272.714844 282.492188 C 266.730469 264.960938 254.230469 249.320312 238.417969 239.585938 Z M 238.417969 239.585938 " style=" stroke:none;fill-rule:nonzero;fill:rgb(15.686275%,56.078431%,78.823529%);fill-opacity:1;" />
<path d="M 157.542969 328.667969 L 171.789062 347.714844 C 173.230469 349.644531 174.816406 351.5625 176.972656 351.957031 C 177.21875 352 177.476562 352.019531 177.742188 352.019531 C 178.976562 352.019531 180.265625 351.554688 181.808594 350.554688 L 184.40625 348.867188 L 165.503906 321.730469 Z M 157.542969 328.667969 " style=" stroke:none;fill-rule:nonzero;fill:rgb(15.686275%,56.078431%,78.823529%);fill-opacity:1;" />
<path d="M 293.167969 189.773438 L 291.5 189.140625 L 290.144531 190.304688 C 272.640625 205.390625 255.046875 221.125 237.851562 237.078125 L 235 239.726562 L 238.285156 241.8125 C 253.007812 251.160156 264.398438 265.339844 270.351562 281.734375 L 271.8125 285.75 L 331.234375 236.230469 L 329.71875 233.980469 C 329.679688 233.925781 329.632812 233.839844 329.617188 233.765625 C 326.210938 214.152344 311.902344 196.882812 293.167969 189.773438 Z M 293.167969 189.773438 " style=" stroke:none;fill-rule:nonzero;fill:rgb(35.686275%,81.568627%,98.823529%);fill-opacity:1;" />
<path d="M 190.003906 286.011719 L 187.542969 284.59375 L 185.992188 286.96875 C 184.714844 288.921875 183.933594 290.726562 183.601562 292.5 C 182.335938 299.394531 187.898438 303.890625 193.273438 308.230469 L 193.53125 308.4375 C 195.179688 309.773438 196.886719 311.15625 198.234375 312.535156 C 200.53125 314.890625 202.339844 317.671875 204.085938 320.363281 C 205.84375 323.070312 207.664062 325.871094 209.980469 328.210938 C 212.257812 330.515625 213.878906 331.453125 215.582031 331.453125 C 216.15625 331.453125 216.71875 331.339844 217.269531 331.113281 C 219.597656 330.179688 221.953125 328.167969 223.949219 326.324219 L 225.601562 324.796875 L 224.597656 322.78125 C 217.007812 307.5625 204.722656 294.503906 190.003906 286.011719 Z M 190.003906 286.011719 " style=" stroke:none;fill-rule:nonzero;fill:rgb(35.686275%,81.568627%,98.823529%);fill-opacity:1;" />
<path d="M 209.015625 328.964844 L 207.152344 326.621094 C 205.761719 324.875 204.542969 323.019531 203.191406 320.9375 L 203.015625 320.667969 C 201.265625 317.992188 199.613281 315.46875 197.46875 313.285156 C 196.128906 311.910156 194.480469 310.578125 192.738281 309.171875 L 192.582031 309.046875 C 191.15625 307.894531 189.679688 306.707031 188.308594 305.425781 L 186.332031 303.582031 L 164.011719 323.027344 L 182.765625 349.933594 Z M 209.015625 328.964844 " style=" stroke:none;fill-rule:nonzero;fill:rgb(35.686275%,81.568627%,98.823529%);fill-opacity:1;" />
<path d="M 358.699219 7.417969 C 351.71875 4.113281 343.660156 4.101562 335.894531 4.089844 L 334.898438 4.082031 C 331.1875 4.070312 327.472656 4.066406 323.761719 4.066406 C 318.730469 4.066406 313.699219 4.074219 308.667969 4.082031 L 308.085938 4.082031 C 303.941406 4.089844 299.789062 4.101562 295.632812 4.101562 L 40.742188 4.179688 C 29.648438 4.179688 19.101562 4.75 11.980469 11.609375 C 4.257812 19.0625 3.859375 30.941406 4.113281 42.464844 L 12.824219 435.796875 C 13.054688 446.273438 13.683594 455.523438 19.058594 462.628906 C 27.105469 473.273438 42.296875 474.550781 55.902344 474.910156 L 304.835938 481.460938 C 306.453125 481.5 308.097656 481.53125 309.75 481.53125 C 319.957031 481.53125 332.609375 480.433594 339.914062 471.878906 C 345.640625 465.167969 346.566406 456.09375 347.128906 445.792969 L 359.875 213.765625 L 231.089844 321.066406 C 229.972656 322 228.773438 323.164062 227.5 324.398438 L 227.273438 324.613281 C 224.320312 327.507812 220.96875 330.78125 217.683594 332.105469 C 216.976562 332.390625 216.292969 332.53125 215.601562 332.53125 C 214.324219 332.53125 212.976562 332.03125 211.601562 331.054688 L 209.757812 329.746094 L 184.601562 349.835938 C 183.074219 351.054688 180.523438 353.089844 177.761719 353.089844 C 177.402344 353.089844 177.074219 353.0625 176.75 353 C 175.535156 352.777344 174.390625 352.148438 173.257812 351.082031 L 171.394531 349.335938 L 155.390625 361.683594 C 154.011719 362.753906 151.703125 364.550781 149.183594 364.550781 C 149.152344 364.550781 148.964844 364.550781 148.890625 364.546875 C 148.027344 364.496094 147.167969 364.246094 146.332031 363.800781 L 144.511719 362.832031 L 132.855469 372.964844 C 131.886719 373.804688 130.675781 374.855469 129.296875 375.066406 C 129.207031 375.082031 129.101562 375.089844 128.972656 375.089844 C 128.355469 375.089844 127.726562 374.875 127.1875 374.46875 C 126.640625 374.0625 126.292969 373.515625 126.214844 372.941406 C 125.964844 371.070312 128.171875 369.261719 129.121094 368.484375 L 140.804688 358.855469 L 139.800781 356.742188 C 139.207031 355.492188 139.042969 354.332031 139.289062 353.203125 C 139.761719 351.082031 141.6875 349.636719 142.96875 348.671875 L 160.980469 335.0625 L 156.386719 328.917969 C 156.214844 328.683594 156.246094 328.367188 156.460938 328.183594 L 185.558594 302.84375 L 184.207031 300.675781 C 182.523438 297.96875 182 295.308594 182.550781 292.308594 C 183.835938 285.390625 191.582031 278.753906 197.804688 273.417969 L 198.007812 273.242188 C 199.863281 271.652344 201.617188 270.144531 203.007812 268.785156 C 210.746094 261.226562 218.800781 253.496094 226.949219 245.8125 C 247.363281 226.574219 268.582031 207.460938 290.019531 189.003906 L 290.402344 188.671875 L 290.65625 188.230469 C 290.714844 188.132812 290.796875 188.0625 290.902344 188.023438 L 291.390625 187.835938 L 291.785156 187.496094 C 303.46875 177.449219 315.199219 167.613281 326.648438 158.253906 C 338.929688 148.210938 351.332031 138.328125 363.507812 128.878906 L 364.589844 128.042969 L 368.597656 55.046875 C 368.742188 52.402344 369.050781 49.523438 369.375 46.480469 C 370.921875 32.066406 372.847656 14.128906 358.699219 7.417969 Z M 41.554688 105.070312 L 39.78125 104.601562 L 41.691406 100.941406 Z M 117.890625 34.601562 L 117.714844 30.363281 C 118.335938 31.625 118.980469 32.878906 119.648438 34.121094 Z M 135.050781 34.199219 C 135.375 32.613281 135.652344 31.015625 135.886719 29.414062 L 136.917969 34.191406 Z M 135.050781 34.199219 " style=" stroke:none;fill-rule:nonzero;fill:rgb(100%,100%,100%);fill-opacity:1;" />
<path d="M 398.621094 126.417969 L 398.265625 126.617188 C 390.34375 131.21875 383.109375 137.492188 376.113281 143.566406 L 376.007812 143.65625 C 373.300781 146.011719 370.503906 148.445312 367.746094 150.695312 L 329.621094 181.828125 C 327.925781 183.21875 326.003906 184.789062 324.722656 186.832031 C 323.1875 189.238281 322.839844 191.984375 323.789062 194.167969 C 324.878906 196.699219 327.714844 198.332031 331.019531 198.332031 C 331.769531 198.332031 332.507812 198.246094 333.195312 198.082031 C 336.636719 197.265625 339.507812 194.84375 341.816406 192.894531 L 374.824219 165.066406 C 378.488281 161.980469 382.347656 158.878906 385.785156 156.113281 C 393.226562 150.117188 400.921875 143.921875 407.804688 137.230469 C 409.53125 135.550781 412.679688 131.402344 412.257812 127.757812 C 412.140625 126.632812 411.617188 125.054688 409.761719 123.933594 C 408.980469 123.460938 408.066406 123.222656 407.042969 123.222656 C 404.40625 123.222656 401.28125 124.851562 398.621094 126.417969 Z M 398.621094 126.417969 " style=" stroke:none;fill-rule:nonzero;fill:rgb(97.647059%,84.705882%,53.72549%);fill-opacity:1;" />
<path d="M 148.949219 363.476562 L 149.191406 363.480469 C 151.167969 363.480469 152.949219 362.226562 154.746094 360.835938 L 170.925781 348.351562 L 161.628906 335.917969 L 143.601562 349.535156 C 142.078125 350.683594 140.679688 351.847656 140.332031 353.445312 C 139.902344 355.425781 141.121094 357.3125 143.085938 359.535156 C 144.792969 361.464844 146.648438 363.355469 148.949219 363.476562 Z M 148.949219 363.476562 " style=" stroke:none;fill-rule:nonzero;fill:rgb(97.647059%,84.705882%,53.72549%);fill-opacity:1;" />
<path d="M 82.664062 501.753906 C 84.386719 501.753906 86.179688 501.71875 88.140625 501.648438 C 110.652344 500.832031 134.195312 500.777344 154.96875 500.730469 L 155.214844 494.742188 L 69.289062 487.519531 C 64.164062 487.097656 58.351562 486.617188 53.019531 485.496094 L 45 483.804688 L 50.035156 490.273438 C 57.957031 500.449219 71.632812 501.753906 82.664062 501.753906 Z M 82.664062 501.753906 " style=" stroke:none;fill-rule:nonzero;fill:rgb(74.901961%,78.039216%,84.705882%);fill-opacity:1;" />
<path d="M 427.804688 101.546875 C 423.140625 97.597656 416.46875 95.898438 409.53125 96.691406 L 410.757812 85.804688 C 411.042969 83.296875 411.507812 80.484375 412 77.503906 C 414.4375 62.753906 417.78125 42.546875 401.511719 33.65625 C 393.957031 29.527344 385.058594 28.996094 377.207031 28.527344 L 376.25 28.46875 C 375.496094 28.421875 374.910156 28.410156 374.40625 28.40625 C 373.894531 18.261719 370.765625 8.640625 360.433594 3.742188 C 352.65625 0.0546875 343.742188 0.0351562 335.878906 0.015625 L 334.917969 0.015625 C 326.167969 -0.0117188 317.417969 0.00390625 308.667969 0.015625 C 304.320312 0.0195312 299.972656 0.0273438 295.628906 0.0273438 L 40.742188 0.109375 C 29.257812 0.113281 17.355469 0.777344 9.160156 8.683594 C 0.253906 17.273438 -0.210938 30.675781 0.0507812 42.558594 L 8.753906 435.890625 C 8.945312 444.519531 9.207031 456.335938 15.8125 465.082031 C 19.710938 470.238281 24.910156 473.449219 30.722656 475.472656 C 30.75 475.511719 30.761719 475.554688 30.789062 475.59375 C 33.828125 480.140625 37.890625 483.195312 42.503906 485.304688 C 49.730469 502.527344 66.332031 505.820312 82.847656 505.820312 C 84.667969 505.820312 86.488281 505.78125 88.296875 505.71875 C 110.882812 504.898438 133.914062 504.84375 156.1875 504.796875 C 178.519531 504.742188 201.609375 504.691406 224.316406 503.867188 C 224.695312 503.855469 225.050781 503.765625 225.390625 503.644531 L 318.214844 511.4375 C 321.898438 511.75 325.703125 512 329.496094 512 C 339.738281 512 349.867188 510.160156 357.066406 502.652344 C 364.605469 494.785156 365.917969 483.160156 366.875 474.671875 L 399.84375 182.539062 C 399.84375 182.53125 399.84375 182.523438 399.84375 182.515625 C 414.460938 167.808594 424.347656 154.074219 430.898438 139.371094 C 436.402344 127.007812 438.484375 110.578125 427.804688 101.546875 Z M 376.785156 35.582031 C 384.246094 36.027344 391.957031 36.488281 398.125 39.859375 C 409.988281 46.34375 407.351562 62.285156 405.027344 76.351562 C 404.519531 79.421875 404.039062 82.320312 403.734375 85.011719 L 402.21875 98.464844 C 395.230469 101.003906 389.320312 105.421875 384.070312 109.371094 C 379.066406 113.140625 374.058594 116.949219 369.066406 120.792969 L 372.664062 55.273438 C 372.804688 52.75 373.105469 49.914062 373.425781 46.914062 C 373.808594 43.339844 374.222656 39.441406 374.398438 35.480469 C 374.804688 35.480469 375.246094 35.488281 375.824219 35.523438 Z M 21.453125 460.820312 C 16.613281 454.417969 16.039062 445.671875 15.820312 435.734375 L 7.117188 42.402344 C 6.878906 31.539062 7.214844 20.378906 14.066406 13.773438 C 20.375 7.6875 30.285156 7.183594 40.746094 7.179688 L 295.632812 7.097656 C 299.980469 7.09375 304.328125 7.089844 308.675781 7.082031 C 317.417969 7.070312 326.15625 7.058594 334.894531 7.082031 L 335.863281 7.085938 C 343.332031 7.101562 351.058594 7.117188 357.40625 10.128906 C 369.625 15.917969 367.910156 31.984375 366.394531 46.160156 C 366.066406 49.257812 365.753906 52.179688 365.605469 54.882812 L 361.667969 126.503906 C 349.226562 136.171875 336.875 146.015625 324.75 155.925781 C 313.03125 165.511719 301.382812 175.292969 289.832031 185.214844 C 289.101562 185.503906 288.46875 186.019531 288.0625 186.726562 C 266.558594 205.242188 245.417969 224.277344 224.890625 243.628906 C 216.839844 251.21875 208.769531 258.960938 200.910156 266.636719 C 199.539062 267.976562 197.75 269.507812 195.855469 271.132812 C 189.273438 276.777344 181.078125 283.800781 179.605469 291.753906 C 178.839844 295.886719 179.828125 299.3125 181.660156 302.253906 L 154.492188 325.921875 C 153.097656 327.136719 152.875 329.222656 153.980469 330.703125 L 156.796875 334.464844 L 141.164062 346.273438 C 139.632812 347.429688 137.066406 349.367188 136.363281 352.554688 C 135.910156 354.59375 136.34375 356.449219 137.089844 358.027344 L 127.210938 366.167969 C 125.882812 367.261719 122.777344 369.824219 123.246094 373.335938 C 123.433594 374.722656 124.199219 375.984375 125.398438 376.882812 C 126.449219 377.667969 127.714844 378.085938 128.972656 378.085938 C 129.257812 378.085938 129.542969 378.066406 129.824219 378.023438 C 131.984375 377.6875 133.625 376.265625 134.820312 375.226562 L 144.921875 366.445312 C 146.035156 367.039062 147.296875 367.460938 148.722656 367.539062 C 148.878906 367.550781 149.03125 367.554688 149.183594 367.554688 C 152.695312 367.550781 155.519531 365.375 157.230469 364.054688 L 171.207031 353.273438 C 172.503906 354.488281 174.140625 355.570312 176.199219 355.949219 C 176.734375 356.046875 177.253906 356.089844 177.761719 356.089844 C 181.566406 356.089844 184.691406 353.597656 186.46875 352.179688 L 209.859375 333.5 C 211.382812 334.574219 213.335938 335.527344 215.597656 335.527344 C 216.605469 335.527344 217.675781 335.339844 218.796875 334.886719 C 222.617188 333.347656 226.207031 329.847656 229.375 326.761719 C 230.683594 325.484375 231.921875 324.277344 233.007812 323.371094 L 356.507812 220.476562 L 344.136719 445.628906 C 343.601562 455.382812 342.738281 463.941406 337.632812 469.925781 C 330.398438 478.398438 316.949219 478.769531 304.914062 478.457031 L 55.984375 471.90625 C 43.074219 471.570312 28.691406 470.402344 21.453125 460.820312 Z M 140.039062 362.230469 C 140.488281 362.738281 141.019531 363.339844 141.636719 363.949219 L 132.171875 372.175781 C 131.0625 373.140625 130.140625 373.886719 129.207031 374.03125 C 128.757812 374.09375 128.226562 373.953125 127.816406 373.644531 C 127.628906 373.503906 127.304688 373.210938 127.25 372.800781 C 127.097656 371.660156 128.523438 370.320312 129.78125 369.285156 L 139.332031 361.414062 C 139.589844 361.71875 139.832031 361.992188 140.039062 362.230469 Z M 145.335938 357.550781 C 143.832031 355.84375 143.132812 354.679688 143.265625 354.082031 C 143.40625 353.441406 144.769531 352.410156 145.425781 351.917969 L 161.027344 340.128906 L 166.753906 347.78125 L 152.914062 358.457031 C 151.839844 359.285156 150.21875 360.535156 149.109375 360.480469 C 147.960938 360.417969 146.5625 358.9375 145.335938 357.550781 Z M 174.179688 345.90625 L 161.609375 329.097656 L 164.953125 326.183594 L 180.175781 348.039062 C 179.238281 348.648438 178.230469 349.132812 177.480469 348.996094 C 176.332031 348.785156 174.984375 346.984375 174.179688 345.90625 Z M 183.390625 345.589844 L 168.019531 323.515625 L 186.261719 307.625 C 187.730469 308.980469 189.273438 310.230469 190.726562 311.402344 C 192.445312 312.789062 194.074219 314.101562 195.328125 315.382812 C 197.332031 317.433594 198.960938 319.933594 200.679688 322.585938 C 201.960938 324.558594 203.277344 326.574219 204.808594 328.492188 Z M 206.605469 318.734375 C 204.773438 315.910156 202.878906 312.992188 200.378906 310.441406 C 198.832031 308.859375 196.96875 307.355469 195.164062 305.898438 C 189.390625 301.242188 185.671875 297.835938 186.558594 293.042969 C 186.824219 291.597656 187.523438 290.105469 188.503906 288.605469 C 202.800781 296.859375 214.546875 309.34375 221.914062 324.117188 C 219.9375 325.953125 217.921875 327.621094 216.160156 328.332031 C 215.496094 328.601562 214.636719 328.644531 212.113281 326.101562 C 210.03125 324.003906 208.367188 321.445312 206.605469 318.734375 Z M 224.96875 321.1875 C 217.300781 306.363281 205.398438 293.8125 191 285.378906 C 192.070312 284.164062 193.261719 282.960938 194.507812 281.78125 C 194.714844 282.015625 194.96875 282.214844 195.28125 282.335938 C 210.75 288.40625 223.40625 300.632812 230.007812 315.878906 C 230.089844 316.074219 230.203125 316.246094 230.335938 316.398438 L 228.484375 317.941406 C 227.347656 318.886719 226.183594 320.003906 224.96875 321.1875 Z M 233.484375 313.773438 C 226.527344 298.070312 213.523438 285.449219 197.632812 278.941406 C 198.589844 278.105469 199.542969 277.285156 200.457031 276.5 C 202.214844 274.992188 203.875 273.566406 205.296875 272.214844 C 219.574219 281.453125 230.714844 295.0625 236.957031 310.882812 Z M 240.222656 308.160156 C 233.710938 292.375 222.515625 278.765625 208.28125 269.332031 C 209.910156 267.746094 211.542969 266.160156 213.1875 264.574219 C 229.246094 272.011719 240.445312 284.902344 246.492188 302.941406 Z M 249.800781 300.179688 C 243.519531 282.578125 232.023438 269.3125 216.304688 261.570312 C 217.792969 260.140625 219.28125 258.714844 220.773438 257.292969 C 237.640625 263.015625 251.65625 277.042969 257.285156 293.945312 Z M 260.59375 291.1875 C 254.503906 274.429688 240.703125 260.507812 224.039062 254.175781 C 225.9375 252.367188 227.839844 250.566406 229.738281 248.773438 C 229.8125 248.707031 229.882812 248.640625 229.957031 248.574219 C 246.300781 256.242188 258.960938 270.960938 264.105469 288.261719 Z M 267.46875 285.460938 C 261.863281 268.292969 249.277344 253.691406 233.113281 245.621094 C 234.355469 244.460938 235.597656 243.300781 236.839844 242.140625 C 252.109375 251.539062 264.082031 266.492188 269.867188 283.460938 Z M 273.171875 280.710938 C 267.035156 263.808594 255.074219 248.925781 239.898438 239.285156 C 256.957031 223.441406 274.398438 207.832031 292.097656 192.582031 C 309.683594 199.25 323.445312 215.742188 326.664062 234.285156 C 326.753906 234.800781 326.960938 235.261719 327.234375 235.664062 Z M 88.039062 498.652344 C 71.945312 499.238281 59.5 497.546875 52.402344 488.433594 C 57.863281 489.578125 63.597656 490.058594 69.046875 490.515625 L 154.96875 497.730469 C 133.007812 497.78125 110.339844 497.84375 88.039062 498.652344 Z M 359.847656 473.878906 C 358.753906 483.585938 357.402344 492.082031 351.960938 497.761719 C 344.253906 505.804688 330.804688 505.402344 318.804688 504.394531 L 69.636719 483.46875 C 60.976562 482.746094 51.523438 481.949219 44.40625 478.3125 C 48.21875 478.707031 52.066406 478.878906 55.800781 478.976562 L 304.730469 485.523438 C 306.410156 485.566406 308.113281 485.597656 309.828125 485.597656 C 322.078125 485.597656 334.894531 484.023438 343.011719 474.515625 C 350.085938 466.230469 350.726562 454.546875 351.195312 446.019531 L 363.929688 214.296875 L 367.273438 211.507812 C 376.101562 204.152344 384.230469 197.304688 391.863281 190.21875 Z M 424.4375 136.492188 C 418.140625 150.632812 408.5 163.910156 394.097656 178.273438 C 384.605469 187.738281 374.28125 196.464844 362.75 206.074219 L 333.164062 230.726562 C 329.085938 211.992188 315.546875 195.410156 298.113281 187.433594 C 308.417969 178.628906 318.792969 169.933594 329.226562 161.398438 C 348.527344 145.617188 368.414062 130.011719 388.324219 115.015625 C 393.515625 111.105469 399.402344 106.675781 405.9375 104.632812 C 408.027344 103.980469 410.457031 103.554688 412.9375 103.554688 C 416.574219 103.554688 420.320312 104.472656 423.242188 106.941406 C 430.929688 113.449219 428.902344 126.472656 424.4375 136.492188 Z M 424.4375 136.492188 " style=" stroke:none;fill-rule:nonzero;fill:rgb(0%,0%,0%);fill-opacity:1;" />
<path d="M 410.3125 123.054688 C 406.398438 120.675781 400.972656 123.839844 398.058594 125.535156 L 397.75 125.71875 C 389.734375 130.367188 382.46875 136.679688 375.441406 142.78125 C 372.699219 145.164062 369.867188 147.625 367.085938 149.894531 L 328.972656 181.023438 C 327.214844 182.460938 325.21875 184.089844 323.835938 186.285156 C 322.132812 188.984375 321.757812 192.085938 322.835938 194.582031 C 324.261719 197.890625 327.742188 199.367188 331.023438 199.367188 C 331.855469 199.367188 332.671875 199.273438 333.4375 199.089844 C 337.117188 198.210938 340.097656 195.703125 342.488281 193.683594 L 375.503906 165.859375 C 379.0625 162.859375 382.796875 159.851562 386.40625 156.945312 C 393.878906 150.929688 401.601562 144.707031 408.527344 137.972656 C 410.378906 136.175781 413.753906 131.695312 413.292969 127.605469 C 413.070312 125.679688 412.042969 124.105469 410.3125 123.054688 Z M 405.710938 135.078125 C 398.917969 141.679688 391.269531 147.839844 383.875 153.796875 C 380.246094 156.722656 376.492188 159.742188 372.898438 162.773438 L 339.886719 190.59375 C 337.710938 192.429688 335.246094 194.503906 332.5 195.160156 C 330.3125 195.683594 327.414062 194.996094 326.542969 192.976562 C 325.894531 191.480469 326.484375 189.652344 327.25 188.4375 C 328.28125 186.800781 329.933594 185.453125 331.527344 184.152344 L 369.640625 153.023438 C 372.46875 150.714844 375.324219 148.230469 378.089844 145.832031 C 384.976562 139.851562 392.09375 133.667969 399.777344 129.210938 L 400.09375 129.027344 C 401.964844 127.933594 406.359375 125.378906 408.214844 126.503906 C 408.871094 126.90625 409.199219 127.386719 409.277344 128.0625 C 409.5 130.039062 407.597656 133.242188 405.710938 135.078125 Z M 405.710938 135.078125 " style=" stroke:none;fill-rule:nonzero;fill:rgb(0%,0%,0%);fill-opacity:1;" />
<path d="M 44.144531 42.214844 L 44.863281 82.410156 C 44.894531 84.179688 44.96875 88.320312 48.292969 90.382812 C 49.519531 91.144531 50.835938 91.375 52.03125 91.375 C 53.226562 91.375 54.304688 91.148438 55.058594 90.984375 L 81.65625 85.324219 C 83.367188 84.960938 84.457031 83.28125 84.09375 81.570312 C 83.730469 79.863281 82.054688 78.769531 80.339844 79.136719 L 53.742188 84.800781 C 52.570312 85.050781 51.859375 85.117188 51.632812 85.015625 C 51.566406 84.949219 51.226562 84.515625 51.1875 82.296875 L 50.839844 62.929688 L 71.777344 61.324219 C 73.519531 61.191406 74.820312 59.671875 74.6875 57.929688 C 74.554688 56.1875 73.019531 54.886719 71.292969 55.015625 L 50.726562 56.59375 L 50.496094 43.554688 L 81.277344 40.5625 C 83.019531 40.390625 84.292969 38.84375 84.121094 37.105469 C 83.953125 35.367188 82.394531 34.097656 80.667969 34.265625 L 48.699219 37.371094 C 48.269531 37.152344 47.789062 37.015625 47.273438 37.015625 C 47.253906 37.015625 47.234375 37.015625 47.214844 37.015625 C 46.019531 37.035156 45 37.730469 44.480469 38.722656 C 43.972656 39.34375 43.699219 40.160156 43.78125 41.027344 C 43.820312 41.457031 43.949219 41.855469 44.144531 42.214844 Z M 44.144531 42.214844 " style=" stroke:none;fill-rule:nonzero;fill:rgb(0%,0%,0%);fill-opacity:1;" />
<path d="M 102.382812 64.597656 L 93.707031 88.480469 C 93.109375 90.121094 93.957031 91.9375 95.597656 92.53125 C 95.957031 92.664062 96.320312 92.722656 96.679688 92.722656 C 97.972656 92.722656 99.183594 91.925781 99.652344 90.640625 L 107.222656 69.804688 L 117.933594 81.324219 C 118.558594 81.992188 119.402344 82.332031 120.253906 82.332031 C 121.023438 82.332031 121.796875 82.050781 122.40625 81.484375 C 123.683594 80.296875 123.757812 78.292969 122.566406 77.015625 L 109.648438 63.125 L 116.492188 44.289062 C 117.085938 42.648438 116.238281 40.835938 114.597656 40.238281 C 112.960938 39.640625 111.144531 40.488281 110.546875 42.128906 L 104.808594 57.921875 L 91.4375 43.542969 C 90.25 42.261719 88.246094 42.1875 86.96875 43.378906 C 85.6875 44.566406 85.617188 46.570312 86.804688 47.847656 Z M 102.382812 64.597656 " style=" stroke:none;fill-rule:nonzero;fill:rgb(0%,0%,0%);fill-opacity:1;" />
<path d="M 131.179688 88.882812 C 131.253906 88.886719 131.332031 88.890625 131.40625 88.890625 C 133.050781 88.890625 134.4375 87.617188 134.558594 85.949219 L 135.496094 72.765625 L 151.71875 69.683594 C 152.105469 69.609375 152.457031 69.460938 152.773438 69.265625 C 155.226562 74.339844 157.355469 79.558594 159.113281 84.878906 C 159.664062 86.535156 161.449219 87.4375 163.109375 86.886719 C 164.769531 86.339844 165.667969 84.550781 165.121094 82.890625 C 159.289062 65.253906 149.644531 48.628906 137.230469 34.808594 C 136.382812 33.867188 135.050781 33.519531 133.851562 33.933594 C 132.648438 34.34375 131.8125 35.433594 131.722656 36.699219 L 128.25 85.503906 C 128.125 87.242188 129.4375 88.757812 131.179688 88.882812 Z M 137.476562 44.902344 C 142.121094 50.746094 146.265625 57.023438 149.855469 63.597656 L 135.960938 66.238281 Z M 137.476562 44.902344 " style=" stroke:none;fill-rule:nonzero;fill:rgb(0%,0%,0%);fill-opacity:1;" />
<path d="M 173.101562 87.523438 C 173.148438 87.523438 173.191406 87.519531 173.234375 87.519531 C 174.980469 87.445312 176.335938 85.972656 176.265625 84.226562 L 174.96875 53.171875 C 179.253906 61.09375 184.101562 68.714844 189.457031 75.941406 C 190.140625 76.863281 191.269531 77.34375 192.410156 77.195312 C 193.546875 77.046875 194.515625 76.292969 194.941406 75.226562 C 197.820312 67.957031 200.0625 60.480469 201.652344 52.859375 L 208.226562 83.226562 C 208.59375 84.933594 210.277344 86.015625 211.988281 85.648438 C 213.695312 85.28125 214.777344 83.597656 214.410156 81.890625 L 204.082031 34.1875 C 203.75 32.648438 202.347656 31.589844 200.769531 31.699219 C 199.199219 31.8125 197.949219 33.054688 197.835938 34.625 C 197.011719 45.8125 194.75 56.800781 191.101562 67.378906 C 184.488281 57.820312 178.769531 47.625 174.070312 36.996094 C 173.457031 35.605469 171.941406 34.84375 170.460938 35.191406 C 168.980469 35.539062 167.953125 36.886719 168.019531 38.40625 L 169.941406 84.488281 C 170.015625 86.191406 171.417969 87.523438 173.101562 87.523438 Z M 173.101562 87.523438 " style=" stroke:none;fill-rule:nonzero;fill:rgb(0%,0%,0%);fill-opacity:1;" />
<path d="M 230.746094 63.855469 C 230.820312 63.855469 230.890625 63.851562 230.964844 63.847656 L 246.640625 62.769531 C 248.382812 62.652344 249.699219 61.140625 249.578125 59.398438 C 249.460938 57.65625 247.96875 56.328125 246.207031 56.460938 L 230.53125 57.535156 C 228.789062 57.65625 227.472656 59.167969 227.59375 60.910156 C 227.710938 62.578125 229.097656 63.855469 230.746094 63.855469 Z M 230.746094 63.855469 " style=" stroke:none;fill-rule:nonzero;fill:rgb(0%,0%,0%);fill-opacity:1;" />
<path d="M 258.558594 34.640625 C 258.84375 34.640625 259.132812 34.601562 259.417969 34.519531 C 262.53125 33.640625 265.726562 33.160156 268.929688 33.027344 C 268.804688 33.398438 268.746094 33.796875 268.769531 34.210938 L 271.429688 77.472656 L 261.121094 78.421875 C 259.378906 78.582031 258.101562 80.121094 258.261719 81.859375 C 258.410156 83.503906 259.789062 84.734375 261.40625 84.734375 C 261.503906 84.734375 261.601562 84.730469 261.699219 84.722656 L 282.8125 82.78125 C 284.550781 82.621094 285.832031 81.082031 285.671875 79.339844 C 285.511719 77.601562 283.949219 76.3125 282.230469 76.480469 L 277.730469 76.894531 L 275.085938 33.824219 C 275.070312 33.617188 275.035156 33.414062 274.984375 33.21875 C 277.222656 33.457031 279.449219 33.855469 281.640625 34.457031 C 283.324219 34.925781 285.066406 33.933594 285.527344 32.25 C 285.996094 30.566406 285.007812 28.824219 283.320312 28.359375 C 274.933594 26.046875 266.074219 26.070312 257.699219 28.433594 C 256.019531 28.910156 255.042969 30.65625 255.515625 32.335938 C 255.910156 33.730469 257.179688 34.640625 258.558594 34.640625 Z M 258.558594 34.640625 " style=" stroke:none;fill-rule:nonzero;fill:rgb(0%,0%,0%);fill-opacity:1;" />
<path d="M 45.273438 121.914062 C 44.203125 121.914062 43.316406 121.070312 43.273438 119.996094 C 43.230469 118.890625 44.089844 117.960938 45.195312 117.917969 L 245.417969 109.949219 C 246.519531 109.910156 247.449219 110.765625 247.496094 111.867188 C 247.539062 112.972656 246.679688 113.902344 245.574219 113.945312 L 45.351562 121.914062 C 45.324219 121.914062 45.296875 121.914062 45.273438 121.914062 Z M 45.273438 121.914062 " style=" stroke:none;fill-rule:nonzero;fill:rgb(0%,0%,0%);fill-opacity:1;" />
<path d="M 45.273438 148.960938 C 44.203125 148.960938 43.316406 148.117188 43.273438 147.039062 C 43.230469 145.9375 44.089844 145.007812 45.195312 144.960938 L 245.417969 136.996094 C 246.519531 136.957031 247.449219 137.8125 247.496094 138.914062 C 247.539062 140.019531 246.679688 140.949219 245.574219 140.992188 L 45.351562 148.957031 C 45.324219 148.960938 45.296875 148.960938 45.273438 148.960938 Z M 45.273438 148.960938 " style=" stroke:none;fill-rule:nonzero;fill:rgb(0%,0%,0%);fill-opacity:1;" />
<path d="M 45.273438 176.003906 C 44.203125 176.003906 43.316406 175.160156 43.273438 174.085938 C 43.230469 172.980469 44.089844 172.050781 45.195312 172.007812 L 245.417969 164.039062 C 246.519531 164 247.449219 164.855469 247.496094 165.957031 C 247.539062 167.0625 246.679688 167.992188 245.574219 168.035156 L 45.351562 176.003906 C 45.324219 176.003906 45.296875 176.003906 45.273438 176.003906 Z M 45.273438 176.003906 " style=" stroke:none;fill-rule:nonzero;fill:rgb(0%,0%,0%);fill-opacity:1;" />
<path d="M 45.273438 203.046875 C 44.203125 203.046875 43.316406 202.203125 43.273438 201.128906 C 43.230469 200.023438 44.089844 199.09375 45.195312 199.050781 L 245.417969 191.082031 C 246.519531 191.042969 247.449219 191.898438 247.496094 193.003906 C 247.539062 194.105469 246.679688 195.035156 245.574219 195.082031 L 45.351562 203.046875 C 45.324219 203.046875 45.296875 203.046875 45.273438 203.046875 Z M 45.273438 203.046875 " style=" stroke:none;fill-rule:nonzero;fill:rgb(0%,0%,0%);fill-opacity:1;" />
</g>
</svg>