<svg id="Layer_1" enable-background="new 0 0 256 256" height="512" viewBox="0 0 256 256" width="512" xmlns="http://www.w3.org/2000/svg"><path d="m22.404 43.01c-24.538 24.538-24.538 64.322 0 88.859l95.231 95.231c5.725 5.725 15.007 5.725 20.732 0l95.231-95.231c24.538-24.538 24.538-64.321 0-88.859-24.538-24.538-64.322-24.538-88.859 0l-16.739 16.737-16.737-16.737c-24.538-24.538-64.322-24.538-88.859 0z" fill="#ff4397"/><path d="m233.597 43.01c-13.556-13.556-31.76-19.612-49.478-18.186 14.391 1.126 28.468 7.176 39.477 18.186 24.538 24.538 26.403 59.99 0 88.859l-95.23 99.231c-.104.104-.217.192-.323.292 3.737-.011 7.471-1.44 10.323-4.292l95.231-95.231c24.537-24.538 24.537-64.321 0-88.859z" fill="#e12579"/><path d="m22.403 43.01c13.556-13.556 31.76-19.612 49.478-18.186-14.391 1.126-28.468 7.176-39.477 18.186-24.539 24.538-26.404 59.99-.001 88.859l95.231 99.231c.104.104.217.192.323.292-3.737-.011-7.471-1.44-10.323-4.292l-95.231-95.231c-24.538-24.538-24.538-64.321 0-88.859z" fill="#ff61b5"/><path d="m128 233.386c-4.266 0-8.533-1.624-11.78-4.872l-95.23-95.231c-25.278-25.278-25.278-66.409 0-91.688 12.245-12.245 28.526-18.989 45.843-18.989s33.598 6.744 45.843 18.989l15.324 15.323 15.323-15.322c12.245-12.246 28.526-18.989 45.843-18.989 17.318 0 33.599 6.744 45.844 18.989 25.279 25.278 25.279 66.409 0 91.688l-95.23 95.231c-3.247 3.247-7.514 4.871-11.78 4.871zm-61.167-206.78c-16.25 0-31.526 6.328-43.016 17.817-11.489 11.491-17.817 26.767-17.817 43.016s6.328 31.526 17.817 43.016l95.23 95.231c4.936 4.935 12.968 4.936 17.904 0l95.23-95.231c23.718-23.719 23.718-62.312 0-86.031-11.49-11.49-26.767-17.817-43.016-17.817s-31.526 6.328-43.016 17.817l-16.737 16.737c-.781.781-2.047.781-2.828 0l-16.737-16.737c-11.488-11.49-26.764-17.818-43.014-17.818z" fill="#690589"/><path d="m36.105 136.084c-.512 0-1.023-.195-1.414-.586l-8.7-8.7c-.781-.781-.781-2.047 0-2.828.78-.781 2.047-.781 2.828 0l8.7 8.7c.781.781.781 2.047 0 2.828-.39.391-.902.586-1.414.586z" fill="#690589"/><ellipse cx="196.52" cy="175.913" fill="#7bac51" rx="35.48" ry="35.48" transform="matrix(.707 -.707 .707 .707 -66.83 190.484)"/><path d="m196.52 140.433c-1.409 0-2.796.091-4.162.251 17.632 2.061 31.318 17.043 31.318 35.229s-13.686 33.167-31.318 35.229c1.366.16 2.753.251 4.162.251 19.595 0 35.48-15.885 35.48-35.481 0-19.594-15.885-35.479-35.48-35.479z" fill="#5d8e33"/><path d="m196.52 211.394c1.409 0 2.796-.092 4.162-.251-17.632-2.062-31.318-17.043-31.318-35.229s13.686-33.167 31.318-35.229c-1.366-.16-2.753-.251-4.162-.251-19.595 0-35.48 15.885-35.48 35.481 0 19.594 15.885 35.479 35.48 35.479z" fill="#99ca6f"/><path d="m196.52 213.394c-20.667 0-37.48-16.813-37.48-37.48s16.813-37.48 37.48-37.48 37.48 16.813 37.48 37.48c0 20.666-16.813 37.48-37.48 37.48zm0-70.961c-18.461 0-33.48 15.019-33.48 33.48s15.019 33.48 33.48 33.48 33.48-15.019 33.48-33.48-15.019-33.48-33.48-33.48z" fill="#690589"/><path d="m217.136 181.463-.001-11.099h-15.066v-15.066l-11.099-.001v15.067l-15.066-.001.001 11.1h15.065v15.066h11.1l-.001-15.066z" fill="#f4efed"/><path d="m202.07 198.529-11.099-.001c-1.104 0-2-.896-2-2v-13.065h-13.065c-1.104 0-2-.896-2-2l-.001-11.099c0-.53.21-1.039.586-1.414.375-.375.884-.586 1.414-.586h13.066v-13.067c0-.53.211-1.039.586-1.414s.884-.586 1.414-.586l11.099.001c1.104 0 2 .896 2 2v13.066h13.066c1.104 0 2 .896 2 2l.001 11.099c0 .53-.21 1.039-.586 1.414-.375.375-.884.586-1.414.586h-13.067v13.066c0 .53-.211 1.039-.586 1.414s-.884.586-1.414.586zm-9.099-4.001 7.099.001v-13.066c0-.53.211-1.039.586-1.414s.884-.586 1.414-.586h13.067l-.001-7.099h-13.066c-1.104 0-2-.896-2-2v-13.066l-7.099-.001v13.067c0 .53-.211 1.039-.586 1.414s-.884.586-1.414.586h-13.066l.001 7.099h13.065c1.104 0 2 .896 2 2z" fill="#690589"/></svg>